<?xml version="1.0" encoding="utf-8"?>
<!-- Generator: Adobe Illustrator 23.0.3, SVG Export Plug-In . SVG Version: 6.00 Build 0)  -->
<svg version="1.1" id="Layer_1" xmlns="http://www.w3.org/2000/svg" xmlns:xlink="http://www.w3.org/1999/xlink" x="0px" y="0px"
	 viewBox="0 0 298.4 90" style="enable-background:new 0 0 298.4 90;" xml:space="preserve">
<style type="text/css">
	.st0{fill:#504B8E;}
</style>
<g>
	<g>
		<path class="st0" d="M46.6,2.2v69.7h45.7v16H29.4V2.2H46.6z"/>
		<path class="st0" d="M106.4,87.8V2.2h5.7l37.1,42.3l37.2-42.3h5.7v85.6H175l-0.1-49.7l-25.7,28.5l-25.7-28.5v49.7H106.4z"/>
		<path class="st0" d="M255.5,5c4.4,1.9,8.5,4.8,12.3,8.6L256.4,25c-3.8-4.6-9.1-6.9-16-6.9s-11.2,1.6-13.1,4.9
			c-1.9,3.2-1.9,6,0,8.3s6.3,4,13.1,5.1c7.2,0.8,13.8,3.1,19.7,7.1c5.9,4,8.8,10.4,8.8,19.1c0,6.9-3.2,12.8-9.4,17.7
			c-6.3,4.9-13.6,7.4-22,7.4c-8,0-14.6-1.1-19.9-3.4c-5.3-2.3-9.9-5.3-13.7-9.1l11.4-11.4c3.8,4.6,10.3,7.2,19.4,8
			c7.6,0,12.4-1.6,14.2-4.9c1.9-3.2,1.9-6.5,0-9.7s-6.6-5.2-14.2-6c-6.9-0.8-13.1-2.9-18.8-6.3c-5.7-3.4-8.6-9.3-8.6-17.7
			c0-7.6,3.2-13.7,9.7-18.2c6.5-4.6,13.2-6.9,20-6.9C244.9,2.2,251.1,3.1,255.5,5z"/>
	</g>
</g>
</svg>
