<?xml version="1.0" encoding="utf-8"?>
<!-- Generator: Adobe Illustrator 23.0.3, SVG Export Plug-In . SVG Version: 6.00 Build 0)  -->
<svg version="1.1" id="Layer_1" xmlns="http://www.w3.org/2000/svg" xmlns:xlink="http://www.w3.org/1999/xlink" x="0px" y="0px"
	 viewBox="0 0 90 73" style="enable-background:new 0 0 90 73;" xml:space="preserve">
<style type="text/css">
	.st0{fill:#504B8E;}
</style>
<g>
	<path class="st0" d="M8.8,21.4V46h16.1v5.6H2.7V21.4H8.8z"/>
	<path class="st0" d="M29.9,51.6V21.4h2L45,36.3l13.1-14.9h2v30.2h-6l0-17.5L45,44.2l-9.1-10.1v17.5H29.9z"/>
	<path class="st0" d="M82.5,22.4c1.5,0.7,3,1.7,4.3,3l-4,4c-1.3-1.6-3.2-2.4-5.6-2.4s-4,0.6-4.6,1.7c-0.7,1.1-0.7,2.1,0,2.9
		c0.7,0.8,2.2,1.4,4.6,1.8c2.6,0.3,4.9,1.1,7,2.5s3.1,3.7,3.1,6.8c0,2.4-1.1,4.5-3.3,6.2c-2.2,1.7-4.8,2.6-7.8,2.6
		c-2.8,0-5.2-0.4-7-1.2c-1.9-0.8-3.5-1.9-4.8-3.2l4-4c1.3,1.6,3.6,2.6,6.9,2.8c2.7,0,4.4-0.6,5-1.7c0.7-1.1,0.7-2.3,0-3.4
		c-0.7-1.1-2.3-1.8-5-2.1c-2.4-0.3-4.6-1-6.7-2.2s-3-3.3-3-6.2c0-2.7,1.1-4.8,3.4-6.4c2.3-1.6,4.6-2.4,7.1-2.4
		C78.8,21.4,81,21.7,82.5,22.4z"/>
</g>
</svg>
